<svg width="25" height="25" viewBox="0 0 25 25" fill="none" xmlns="http://www.w3.org/2000/svg">
<path d="M18.8892 11.4583C19.4953 17.0578 21.875 18.75 21.875 18.75H3.125C3.125 18.75 6.25 16.5278 6.25 8.74999C6.25 6.98188 6.90848 5.28619 8.08058 4.03595C9.25269 2.7857 10.8424 2.08333 12.5 2.08333C12.8514 2.08333 13.1997 2.11489 13.5417 2.17655" stroke="#4C98FA" stroke-width="1.5" stroke-linecap="round" stroke-linejoin="round"/>
<path d="M19.7917 8.33333C21.5176 8.33333 22.9167 6.93421 22.9167 5.20833C22.9167 3.48244 21.5176 2.08333 19.7917 2.08333C18.0657 2.08333 16.6667 3.48244 16.6667 5.20833C16.6667 6.93421 18.0657 8.33333 19.7917 8.33333Z" stroke="#FA7364" stroke-width="1.5" stroke-linecap="round" stroke-linejoin="round"/>
<path d="M14.3021 21.875C14.119 22.1907 13.8562 22.4528 13.5398 22.6349C13.2235 22.8171 12.865 22.913 12.5 22.913C12.135 22.913 11.7765 22.8171 11.4602 22.6349C11.144 22.4528 10.881 22.1907 10.6979 21.875" stroke="#4C98FA" stroke-width="1.5" stroke-linecap="round" stroke-linejoin="round"/>
</svg>
